<?xml version="1.0" encoding="iso-8859-1"?>
<!-- Uploaded to: SVG Repo, www.svgrepo.com, Generator: SVG Repo Mixer Tools -->
<svg fill="#000000" height="800px" width="800px" version="1.1" id="Layer_1" xmlns="http://www.w3.org/2000/svg" xmlns:xlink="http://www.w3.org/1999/xlink" 
	 viewBox="0 0 512 512" xml:space="preserve">
<g>
	<g>
		<path d="M447.145,63.719h-43.099l-18.709-52.388c-3.675-10.291-15.972-14.532-25.208-8.674
			C249.277,72.918,262.048,65.035,256,68.161c-6.056-3.131,6.723,4.757-104.128-65.505c-9.228-5.853-21.53-1.626-25.208,8.674
			l-18.709,52.388H64.855c-9.425,0-17.067,7.641-17.067,17.067v414.147c0,9.425,7.641,17.067,17.067,17.067h382.29
			c9.425,0,17.067-7.641,17.067-17.067V80.786C464.211,71.361,456.57,63.719,447.145,63.719z M151.629,42.917l79.775,50.565
			l-25.816,38.668l-65.601-56.636L151.629,42.917z M238.932,477.867H81.92V97.852h0.001h31.71l84.271,72.753
			c7.705,6.647,19.619,5.138,25.347-3.442l15.683-23.49V477.867z M360.371,42.917l11.642,32.597l-65.6,56.636l-25.816-38.668
			L360.371,42.917z M273.066,477.867V143.674l15.683,23.49c5.704,8.542,17.607,10.123,25.347,3.442l84.271-72.753h31.71v380.014
			H273.066z"/>
	</g>
</g>
<g>
	<g>
		<path d="M187.038,256.002h-52.771c-8.761,0-16.446,6.418-17.408,15.125c-1.135,10.295,6.894,19.008,16.96,19.008h52.771
			c8.761,0,16.446-6.418,17.408-15.125C205.133,264.715,197.102,256.002,187.038,256.002z"/>
	</g>
</g>
<g>
	<g>
		<path d="M378.183,256.002h-52.771c-8.761,0-16.446,6.418-17.408,15.125c-1.135,10.295,6.894,19.008,16.96,19.008h52.771
			c8.761,0,16.446-6.418,17.408-15.125C396.278,264.715,388.247,256.002,378.183,256.002z"/>
	</g>
</g>
</svg>